<?xml version="1.0" encoding="UTF-8"?>
<svg id="uuid-7cdebfff-20eb-4ac4-ab99-a7ccbb3ea80e" data-name="Sun" xmlns="http://www.w3.org/2000/svg" viewBox="0 0 740 841">
  <defs>
    <style>
      .uuid-2b989f93-96ef-4754-bea8-eae30fd75952 {
        fill: #ffcd00;
      }
    </style>
  </defs>
  <path class="uuid-2b989f93-96ef-4754-bea8-eae30fd75952" d="M144,420c0,85.05,68.95,154,154,154,4.38,0,8.71-.19,13-.55v-306.9c-4.29-.36-8.62-.55-13-.55-85.05,0-154,68.95-154,154Z"/>
  <path class="uuid-2b989f93-96ef-4754-bea8-eae30fd75952" d="M298,131c-9.94,0-18,8.06-18,18v87h31v-99.43c-3.28-3.43-7.88-5.57-13-5.57Z"/>
  <path class="uuid-2b989f93-96ef-4754-bea8-eae30fd75952" d="M280,691c0,9.94,8.06,18,18,18,5.12,0,9.72-2.14,13-5.57v-99.43h-31v87Z"/>
  <path class="uuid-2b989f93-96ef-4754-bea8-eae30fd75952" d="M105,403H18c-9.94,0-18,8.06-18,18s8.06,18,18,18h87s0-36,0-36Z"/>
  <path class="uuid-2b989f93-96ef-4754-bea8-eae30fd75952" d="M40.72,271.01c-5.16,8.5-2.46,19.57,6.04,24.73l74.36,45.17,18.69-30.77-74.36-45.17c-8.5-5.16-19.57-2.46-24.73,6.04Z"/>
  <path class="uuid-2b989f93-96ef-4754-bea8-eae30fd75952" d="M46.67,540.79c-8.48,5.18-11.16,16.26-5.98,24.74,5.18,8.48,16.26,11.16,24.74,5.98l74.26-45.33-18.76-30.73-74.26,45.33Z"/>
  <path class="uuid-2b989f93-96ef-4754-bea8-eae30fd75952" d="M187.07,265.66l31.21-17.95-43.37-75.42c-4.96-8.62-15.96-11.59-24.58-6.63-8.62,4.96-11.59,15.96-6.63,24.58l43.37,75.42Z"/>
  <path class="uuid-2b989f93-96ef-4754-bea8-eae30fd75952" d="M143.55,647.09c-5.01,8.59-2.11,19.61,6.47,24.62s19.61,2.11,24.62-6.47l43.85-75.14-31.09-18.15-43.85,75.14Z"/>
</svg>